<mxfile host="app.diagrams.net" modified="2022-06-08T18:45:44.871Z" agent="5.0 (Windows)" etag="MVy0iNrgpixTMsIYUpoi" version="19.0.2" type="github" pages="2">
  <diagram id="6gJrQtzl0GJTsgdpb87g" name="EAV simple">
    <mxGraphModel dx="868" dy="450" grid="1" gridSize="10" guides="1" tooltips="1" connect="1" arrows="1" fold="1" page="1" pageScale="1" pageWidth="1169" pageHeight="827" math="0" shadow="0">
      <root>
        <mxCell id="0" />
        <mxCell id="1" parent="0" />
        <mxCell id="638htRWTetuBH2pimIQO-1" value="Modèle EAV" style="shape=table;startSize=30;container=1;collapsible=0;childLayout=tableLayout;fontStyle=1;align=center;" vertex="1" parent="1">
          <mxGeometry x="130" y="100" width="520" height="150" as="geometry" />
        </mxCell>
        <mxCell id="638htRWTetuBH2pimIQO-2" value="" style="shape=tableRow;horizontal=0;startSize=0;swimlaneHead=0;swimlaneBody=0;top=0;left=0;bottom=0;right=0;collapsible=0;dropTarget=0;fillColor=none;points=[[0,0.5],[1,0.5]];portConstraint=eastwest;" vertex="1" parent="638htRWTetuBH2pimIQO-1">
          <mxGeometry y="30" width="520" height="40" as="geometry" />
        </mxCell>
        <mxCell id="638htRWTetuBH2pimIQO-3" value="Albert Dupont @ 2014-09-01T09:30" style="shape=partialRectangle;html=1;whiteSpace=wrap;connectable=0;fillColor=none;top=0;left=0;bottom=0;right=0;overflow=hidden;" vertex="1" parent="638htRWTetuBH2pimIQO-2">
          <mxGeometry width="240" height="40" as="geometry">
            <mxRectangle width="240" height="40" as="alternateBounds" />
          </mxGeometry>
        </mxCell>
        <mxCell id="638htRWTetuBH2pimIQO-4" value="" style="shape=partialRectangle;html=1;whiteSpace=wrap;connectable=0;fillColor=none;top=0;left=0;bottom=0;right=0;overflow=hidden;" vertex="1" parent="638htRWTetuBH2pimIQO-2">
          <mxGeometry x="240" width="140" height="40" as="geometry">
            <mxRectangle width="140" height="40" as="alternateBounds" />
          </mxGeometry>
        </mxCell>
        <mxCell id="638htRWTetuBH2pimIQO-5" value="" style="shape=partialRectangle;html=1;whiteSpace=wrap;connectable=0;fillColor=none;top=0;left=0;bottom=0;right=0;overflow=hidden;" vertex="1" parent="638htRWTetuBH2pimIQO-2">
          <mxGeometry x="380" width="140" height="40" as="geometry">
            <mxRectangle width="140" height="40" as="alternateBounds" />
          </mxGeometry>
        </mxCell>
        <mxCell id="638htRWTetuBH2pimIQO-6" value="" style="shape=tableRow;horizontal=0;startSize=0;swimlaneHead=0;swimlaneBody=0;top=0;left=0;bottom=0;right=0;collapsible=0;dropTarget=0;fillColor=none;points=[[0,0.5],[1,0.5]];portConstraint=eastwest;" vertex="1" parent="638htRWTetuBH2pimIQO-1">
          <mxGeometry y="70" width="520" height="40" as="geometry" />
        </mxCell>
        <mxCell id="638htRWTetuBH2pimIQO-7" value="" style="shape=partialRectangle;html=1;whiteSpace=wrap;connectable=0;fillColor=none;top=0;left=0;bottom=0;right=0;overflow=hidden;" vertex="1" parent="638htRWTetuBH2pimIQO-6">
          <mxGeometry width="240" height="40" as="geometry">
            <mxRectangle width="240" height="40" as="alternateBounds" />
          </mxGeometry>
        </mxCell>
        <mxCell id="638htRWTetuBH2pimIQO-8" value="Poids" style="shape=partialRectangle;html=1;whiteSpace=wrap;connectable=0;fillColor=none;top=0;left=0;bottom=0;right=0;overflow=hidden;" vertex="1" parent="638htRWTetuBH2pimIQO-6">
          <mxGeometry x="240" width="140" height="40" as="geometry">
            <mxRectangle width="140" height="40" as="alternateBounds" />
          </mxGeometry>
        </mxCell>
        <mxCell id="638htRWTetuBH2pimIQO-9" value="75" style="shape=partialRectangle;html=1;whiteSpace=wrap;connectable=0;fillColor=none;top=0;left=0;bottom=0;right=0;overflow=hidden;" vertex="1" parent="638htRWTetuBH2pimIQO-6">
          <mxGeometry x="380" width="140" height="40" as="geometry">
            <mxRectangle width="140" height="40" as="alternateBounds" />
          </mxGeometry>
        </mxCell>
        <mxCell id="638htRWTetuBH2pimIQO-10" value="" style="shape=tableRow;horizontal=0;startSize=0;swimlaneHead=0;swimlaneBody=0;top=0;left=0;bottom=0;right=0;collapsible=0;dropTarget=0;fillColor=none;points=[[0,0.5],[1,0.5]];portConstraint=eastwest;" vertex="1" parent="638htRWTetuBH2pimIQO-1">
          <mxGeometry y="110" width="520" height="40" as="geometry" />
        </mxCell>
        <mxCell id="638htRWTetuBH2pimIQO-11" value="" style="shape=partialRectangle;html=1;whiteSpace=wrap;connectable=0;fillColor=none;top=0;left=0;bottom=0;right=0;overflow=hidden;" vertex="1" parent="638htRWTetuBH2pimIQO-10">
          <mxGeometry width="240" height="40" as="geometry">
            <mxRectangle width="240" height="40" as="alternateBounds" />
          </mxGeometry>
        </mxCell>
        <mxCell id="638htRWTetuBH2pimIQO-12" value="Tension" style="shape=partialRectangle;html=1;whiteSpace=wrap;connectable=0;fillColor=none;top=0;left=0;bottom=0;right=0;overflow=hidden;" vertex="1" parent="638htRWTetuBH2pimIQO-10">
          <mxGeometry x="240" width="140" height="40" as="geometry">
            <mxRectangle width="140" height="40" as="alternateBounds" />
          </mxGeometry>
        </mxCell>
        <mxCell id="638htRWTetuBH2pimIQO-13" value="11/9" style="shape=partialRectangle;html=1;whiteSpace=wrap;connectable=0;fillColor=none;top=0;left=0;bottom=0;right=0;overflow=hidden;" vertex="1" parent="638htRWTetuBH2pimIQO-10">
          <mxGeometry x="380" width="140" height="40" as="geometry">
            <mxRectangle width="140" height="40" as="alternateBounds" />
          </mxGeometry>
        </mxCell>
        <mxCell id="638htRWTetuBH2pimIQO-14" value="" style="shape=tableRow;horizontal=0;startSize=0;swimlaneHead=0;swimlaneBody=0;top=0;left=0;bottom=0;right=0;collapsible=0;dropTarget=0;fillColor=none;points=[[0,0.5],[1,0.5]];portConstraint=eastwest;" vertex="1" parent="1">
          <mxGeometry x="140" y="140" width="520" height="40" as="geometry" />
        </mxCell>
        <mxCell id="638htRWTetuBH2pimIQO-16" value="Toux" style="shape=partialRectangle;html=1;whiteSpace=wrap;connectable=0;fillColor=none;top=0;left=0;bottom=0;right=0;overflow=hidden;" vertex="1" parent="638htRWTetuBH2pimIQO-14">
          <mxGeometry x="250" y="-10" width="107" height="40" as="geometry">
            <mxRectangle width="107" height="40" as="alternateBounds" />
          </mxGeometry>
        </mxCell>
        <mxCell id="638htRWTetuBH2pimIQO-17" value="Oui" style="shape=partialRectangle;html=1;whiteSpace=wrap;connectable=0;fillColor=none;top=0;left=0;bottom=0;right=0;overflow=hidden;" vertex="1" parent="638htRWTetuBH2pimIQO-14">
          <mxGeometry x="400" y="-5" width="90" height="30" as="geometry">
            <mxRectangle width="173" height="40" as="alternateBounds" />
          </mxGeometry>
        </mxCell>
        <mxCell id="638htRWTetuBH2pimIQO-15" value="Albert Dupont @ 2014-09-01T19:30" style="shape=partialRectangle;html=1;whiteSpace=wrap;connectable=0;fillColor=none;top=0;left=0;bottom=0;right=0;overflow=hidden;" vertex="1" parent="1">
          <mxGeometry x="130" y="170" width="240" height="40" as="geometry">
            <mxRectangle width="240" height="40" as="alternateBounds" />
          </mxGeometry>
        </mxCell>
        <mxCell id="638htRWTetuBH2pimIQO-18" value="Albert Dupont @ 2014-09-01T09:30" style="shape=partialRectangle;html=1;whiteSpace=wrap;connectable=0;fillColor=none;top=0;left=0;bottom=0;right=0;overflow=hidden;" vertex="1" parent="1">
          <mxGeometry x="130" y="210" width="240" height="40" as="geometry">
            <mxRectangle width="240" height="40" as="alternateBounds" />
          </mxGeometry>
        </mxCell>
      </root>
    </mxGraphModel>
  </diagram>
  <diagram id="Ref0Hk3v3gDDOu0_nxlD" name="Decomposition">
    <mxGraphModel dx="868" dy="450" grid="1" gridSize="10" guides="1" tooltips="1" connect="1" arrows="1" fold="1" page="1" pageScale="1" pageWidth="1169" pageHeight="827" math="0" shadow="0">
      <root>
        <mxCell id="0" />
        <mxCell id="1" parent="0" />
        <mxCell id="Hsmfd1g_AHss6eR4w8qp-1" value="Modèle EAV" style="shape=table;startSize=30;container=1;collapsible=0;childLayout=tableLayout;fontStyle=1;align=center;" vertex="1" parent="1">
          <mxGeometry x="150" y="30" width="520" height="150" as="geometry" />
        </mxCell>
        <mxCell id="Hsmfd1g_AHss6eR4w8qp-2" value="" style="shape=tableRow;horizontal=0;startSize=0;swimlaneHead=0;swimlaneBody=0;top=0;left=0;bottom=0;right=0;collapsible=0;dropTarget=0;fillColor=none;points=[[0,0.5],[1,0.5]];portConstraint=eastwest;" vertex="1" parent="Hsmfd1g_AHss6eR4w8qp-1">
          <mxGeometry y="30" width="520" height="40" as="geometry" />
        </mxCell>
        <mxCell id="Hsmfd1g_AHss6eR4w8qp-3" value="Albert Dupont @ 2014-09-01T09:30" style="shape=partialRectangle;html=1;whiteSpace=wrap;connectable=0;fillColor=none;top=0;left=0;bottom=0;right=0;overflow=hidden;" vertex="1" parent="Hsmfd1g_AHss6eR4w8qp-2">
          <mxGeometry width="240" height="40" as="geometry">
            <mxRectangle width="240" height="40" as="alternateBounds" />
          </mxGeometry>
        </mxCell>
        <mxCell id="Hsmfd1g_AHss6eR4w8qp-4" value="" style="shape=partialRectangle;html=1;whiteSpace=wrap;connectable=0;fillColor=none;top=0;left=0;bottom=0;right=0;overflow=hidden;" vertex="1" parent="Hsmfd1g_AHss6eR4w8qp-2">
          <mxGeometry x="240" width="140" height="40" as="geometry">
            <mxRectangle width="140" height="40" as="alternateBounds" />
          </mxGeometry>
        </mxCell>
        <mxCell id="Hsmfd1g_AHss6eR4w8qp-5" value="" style="shape=partialRectangle;html=1;whiteSpace=wrap;connectable=0;fillColor=none;top=0;left=0;bottom=0;right=0;overflow=hidden;" vertex="1" parent="Hsmfd1g_AHss6eR4w8qp-2">
          <mxGeometry x="380" width="140" height="40" as="geometry">
            <mxRectangle width="140" height="40" as="alternateBounds" />
          </mxGeometry>
        </mxCell>
        <mxCell id="Hsmfd1g_AHss6eR4w8qp-6" value="" style="shape=tableRow;horizontal=0;startSize=0;swimlaneHead=0;swimlaneBody=0;top=0;left=0;bottom=0;right=0;collapsible=0;dropTarget=0;fillColor=none;points=[[0,0.5],[1,0.5]];portConstraint=eastwest;" vertex="1" parent="Hsmfd1g_AHss6eR4w8qp-1">
          <mxGeometry y="70" width="520" height="40" as="geometry" />
        </mxCell>
        <mxCell id="Hsmfd1g_AHss6eR4w8qp-7" value="" style="shape=partialRectangle;html=1;whiteSpace=wrap;connectable=0;fillColor=none;top=0;left=0;bottom=0;right=0;overflow=hidden;" vertex="1" parent="Hsmfd1g_AHss6eR4w8qp-6">
          <mxGeometry width="240" height="40" as="geometry">
            <mxRectangle width="240" height="40" as="alternateBounds" />
          </mxGeometry>
        </mxCell>
        <mxCell id="Hsmfd1g_AHss6eR4w8qp-8" value="Poids" style="shape=partialRectangle;html=1;whiteSpace=wrap;connectable=0;fillColor=none;top=0;left=0;bottom=0;right=0;overflow=hidden;" vertex="1" parent="Hsmfd1g_AHss6eR4w8qp-6">
          <mxGeometry x="240" width="140" height="40" as="geometry">
            <mxRectangle width="140" height="40" as="alternateBounds" />
          </mxGeometry>
        </mxCell>
        <mxCell id="Hsmfd1g_AHss6eR4w8qp-9" value="75" style="shape=partialRectangle;html=1;whiteSpace=wrap;connectable=0;fillColor=none;top=0;left=0;bottom=0;right=0;overflow=hidden;" vertex="1" parent="Hsmfd1g_AHss6eR4w8qp-6">
          <mxGeometry x="380" width="140" height="40" as="geometry">
            <mxRectangle width="140" height="40" as="alternateBounds" />
          </mxGeometry>
        </mxCell>
        <mxCell id="Hsmfd1g_AHss6eR4w8qp-10" value="" style="shape=tableRow;horizontal=0;startSize=0;swimlaneHead=0;swimlaneBody=0;top=0;left=0;bottom=0;right=0;collapsible=0;dropTarget=0;fillColor=none;points=[[0,0.5],[1,0.5]];portConstraint=eastwest;" vertex="1" parent="Hsmfd1g_AHss6eR4w8qp-1">
          <mxGeometry y="110" width="520" height="40" as="geometry" />
        </mxCell>
        <mxCell id="Hsmfd1g_AHss6eR4w8qp-11" value="" style="shape=partialRectangle;html=1;whiteSpace=wrap;connectable=0;fillColor=none;top=0;left=0;bottom=0;right=0;overflow=hidden;" vertex="1" parent="Hsmfd1g_AHss6eR4w8qp-10">
          <mxGeometry width="240" height="40" as="geometry">
            <mxRectangle width="240" height="40" as="alternateBounds" />
          </mxGeometry>
        </mxCell>
        <mxCell id="Hsmfd1g_AHss6eR4w8qp-12" value="Tension" style="shape=partialRectangle;html=1;whiteSpace=wrap;connectable=0;fillColor=none;top=0;left=0;bottom=0;right=0;overflow=hidden;" vertex="1" parent="Hsmfd1g_AHss6eR4w8qp-10">
          <mxGeometry x="240" width="140" height="40" as="geometry">
            <mxRectangle width="140" height="40" as="alternateBounds" />
          </mxGeometry>
        </mxCell>
        <mxCell id="Hsmfd1g_AHss6eR4w8qp-13" value="11/9" style="shape=partialRectangle;html=1;whiteSpace=wrap;connectable=0;fillColor=none;top=0;left=0;bottom=0;right=0;overflow=hidden;" vertex="1" parent="Hsmfd1g_AHss6eR4w8qp-10">
          <mxGeometry x="380" width="140" height="40" as="geometry">
            <mxRectangle width="140" height="40" as="alternateBounds" />
          </mxGeometry>
        </mxCell>
        <mxCell id="Hsmfd1g_AHss6eR4w8qp-14" value="" style="shape=tableRow;horizontal=0;startSize=0;swimlaneHead=0;swimlaneBody=0;top=0;left=0;bottom=0;right=0;collapsible=0;dropTarget=0;fillColor=none;points=[[0,0.5],[1,0.5]];portConstraint=eastwest;" vertex="1" parent="1">
          <mxGeometry x="160" y="70" width="520" height="40" as="geometry" />
        </mxCell>
        <mxCell id="Hsmfd1g_AHss6eR4w8qp-15" value="Toux" style="shape=partialRectangle;html=1;whiteSpace=wrap;connectable=0;fillColor=none;top=0;left=0;bottom=0;right=0;overflow=hidden;" vertex="1" parent="Hsmfd1g_AHss6eR4w8qp-14">
          <mxGeometry x="240" y="-5" width="107" height="40" as="geometry">
            <mxRectangle width="107" height="40" as="alternateBounds" />
          </mxGeometry>
        </mxCell>
        <mxCell id="Hsmfd1g_AHss6eR4w8qp-16" value="Oui" style="shape=partialRectangle;html=1;whiteSpace=wrap;connectable=0;fillColor=none;top=0;left=0;bottom=0;right=0;overflow=hidden;" vertex="1" parent="Hsmfd1g_AHss6eR4w8qp-14">
          <mxGeometry x="400" y="-5" width="90" height="30" as="geometry">
            <mxRectangle width="173" height="40" as="alternateBounds" />
          </mxGeometry>
        </mxCell>
        <mxCell id="Hsmfd1g_AHss6eR4w8qp-17" value="Albert Dupont @ 2014-09-01T19:30" style="shape=partialRectangle;html=1;whiteSpace=wrap;connectable=0;fillColor=none;top=0;left=0;bottom=0;right=0;overflow=hidden;" vertex="1" parent="1">
          <mxGeometry x="150" y="100" width="240" height="40" as="geometry">
            <mxRectangle width="240" height="40" as="alternateBounds" />
          </mxGeometry>
        </mxCell>
        <mxCell id="Hsmfd1g_AHss6eR4w8qp-18" value="Albert Dupont @ 2014-09-01T09:30" style="shape=partialRectangle;html=1;whiteSpace=wrap;connectable=0;fillColor=none;top=0;left=0;bottom=0;right=0;overflow=hidden;" vertex="1" parent="1">
          <mxGeometry x="150" y="140" width="240" height="40" as="geometry">
            <mxRectangle width="240" height="40" as="alternateBounds" />
          </mxGeometry>
        </mxCell>
        <mxCell id="Hsmfd1g_AHss6eR4w8qp-19" value="Table" style="shape=table;startSize=30;container=1;collapsible=0;childLayout=tableLayout;fontStyle=1;align=center;fixedRows=1;metaEdit=1;swimlaneHead=0;top=1;noLabel=1;" vertex="1" parent="1">
          <mxGeometry x="70" y="210" width="330" height="190" as="geometry" />
        </mxCell>
        <mxCell id="Hsmfd1g_AHss6eR4w8qp-41" style="shape=tableRow;horizontal=0;startSize=0;swimlaneHead=0;swimlaneBody=0;top=0;left=0;bottom=0;right=0;collapsible=0;dropTarget=0;fillColor=none;points=[[0,0.5],[1,0.5]];portConstraint=eastwest;" vertex="1" parent="Hsmfd1g_AHss6eR4w8qp-19">
          <mxGeometry y="30" width="330" height="40" as="geometry" />
        </mxCell>
        <mxCell id="Hsmfd1g_AHss6eR4w8qp-42" style="shape=partialRectangle;html=1;whiteSpace=wrap;connectable=0;fillColor=none;top=0;left=0;bottom=0;right=0;overflow=hidden;" vertex="1" parent="Hsmfd1g_AHss6eR4w8qp-41">
          <mxGeometry width="250" height="40" as="geometry">
            <mxRectangle width="250" height="40" as="alternateBounds" />
          </mxGeometry>
        </mxCell>
        <mxCell id="Hsmfd1g_AHss6eR4w8qp-43" value="EID" style="shape=partialRectangle;html=1;whiteSpace=wrap;connectable=0;fillColor=none;top=0;left=0;bottom=0;right=0;overflow=hidden;" vertex="1" parent="Hsmfd1g_AHss6eR4w8qp-41">
          <mxGeometry x="250" width="80" height="40" as="geometry">
            <mxRectangle width="80" height="40" as="alternateBounds" />
          </mxGeometry>
        </mxCell>
        <mxCell id="Hsmfd1g_AHss6eR4w8qp-20" value="" style="shape=tableRow;horizontal=0;startSize=0;swimlaneHead=0;swimlaneBody=0;top=0;left=0;bottom=0;right=0;collapsible=0;dropTarget=0;fillColor=none;points=[[0,0.5],[1,0.5]];portConstraint=eastwest;" vertex="1" parent="Hsmfd1g_AHss6eR4w8qp-19">
          <mxGeometry y="70" width="330" height="40" as="geometry" />
        </mxCell>
        <mxCell id="Hsmfd1g_AHss6eR4w8qp-21" value="" style="shape=partialRectangle;html=1;whiteSpace=wrap;connectable=0;fillColor=none;top=0;left=0;bottom=0;right=0;overflow=hidden;" vertex="1" parent="Hsmfd1g_AHss6eR4w8qp-20">
          <mxGeometry width="250" height="40" as="geometry">
            <mxRectangle width="250" height="40" as="alternateBounds" />
          </mxGeometry>
        </mxCell>
        <mxCell id="Hsmfd1g_AHss6eR4w8qp-22" value="1" style="shape=partialRectangle;html=1;whiteSpace=wrap;connectable=0;fillColor=none;top=0;left=0;bottom=0;right=0;overflow=hidden;" vertex="1" parent="Hsmfd1g_AHss6eR4w8qp-20">
          <mxGeometry x="250" width="80" height="40" as="geometry">
            <mxRectangle width="80" height="40" as="alternateBounds" />
          </mxGeometry>
        </mxCell>
        <mxCell id="Hsmfd1g_AHss6eR4w8qp-24" value="" style="shape=tableRow;horizontal=0;startSize=0;swimlaneHead=0;swimlaneBody=0;top=0;left=0;bottom=0;right=0;collapsible=0;dropTarget=0;fillColor=none;points=[[0,0.5],[1,0.5]];portConstraint=eastwest;" vertex="1" parent="Hsmfd1g_AHss6eR4w8qp-19">
          <mxGeometry y="110" width="330" height="40" as="geometry" />
        </mxCell>
        <mxCell id="Hsmfd1g_AHss6eR4w8qp-25" value="" style="shape=partialRectangle;html=1;whiteSpace=wrap;connectable=0;fillColor=none;top=0;left=0;bottom=0;right=0;overflow=hidden;" vertex="1" parent="Hsmfd1g_AHss6eR4w8qp-24">
          <mxGeometry width="250" height="40" as="geometry">
            <mxRectangle width="250" height="40" as="alternateBounds" />
          </mxGeometry>
        </mxCell>
        <mxCell id="Hsmfd1g_AHss6eR4w8qp-26" value="2" style="shape=partialRectangle;html=1;whiteSpace=wrap;connectable=0;fillColor=none;top=0;left=0;bottom=0;right=0;overflow=hidden;" vertex="1" parent="Hsmfd1g_AHss6eR4w8qp-24">
          <mxGeometry x="250" width="80" height="40" as="geometry">
            <mxRectangle width="80" height="40" as="alternateBounds" />
          </mxGeometry>
        </mxCell>
        <mxCell id="Hsmfd1g_AHss6eR4w8qp-28" value="" style="shape=tableRow;horizontal=0;startSize=0;swimlaneHead=0;swimlaneBody=0;top=0;left=0;bottom=0;right=0;collapsible=0;dropTarget=0;fillColor=none;points=[[0,0.5],[1,0.5]];portConstraint=eastwest;" vertex="1" parent="Hsmfd1g_AHss6eR4w8qp-19">
          <mxGeometry y="150" width="330" height="40" as="geometry" />
        </mxCell>
        <mxCell id="Hsmfd1g_AHss6eR4w8qp-29" value="" style="shape=partialRectangle;html=1;whiteSpace=wrap;connectable=0;fillColor=none;top=0;left=0;bottom=0;right=0;overflow=hidden;" vertex="1" parent="Hsmfd1g_AHss6eR4w8qp-28">
          <mxGeometry width="250" height="40" as="geometry">
            <mxRectangle width="250" height="40" as="alternateBounds" />
          </mxGeometry>
        </mxCell>
        <mxCell id="Hsmfd1g_AHss6eR4w8qp-30" value="3" style="shape=partialRectangle;html=1;whiteSpace=wrap;connectable=0;fillColor=none;top=0;left=0;bottom=0;right=0;overflow=hidden;" vertex="1" parent="Hsmfd1g_AHss6eR4w8qp-28">
          <mxGeometry x="250" width="80" height="40" as="geometry">
            <mxRectangle width="80" height="40" as="alternateBounds" />
          </mxGeometry>
        </mxCell>
        <mxCell id="Hsmfd1g_AHss6eR4w8qp-40" value="Albert Dupont @ 2014-09-01T09:30" style="text;whiteSpace=wrap;html=1;" vertex="1" parent="1">
          <mxGeometry x="100" y="287" width="210" height="30" as="geometry" />
        </mxCell>
        <mxCell id="Hsmfd1g_AHss6eR4w8qp-44" value="Name" style="text;whiteSpace=wrap;html=1;" vertex="1" parent="1">
          <mxGeometry x="185" y="250" width="50" height="30" as="geometry" />
        </mxCell>
        <mxCell id="Hsmfd1g_AHss6eR4w8qp-45" value="Albert Dupont @ 2014-09-01T19:30" style="shape=partialRectangle;html=1;whiteSpace=wrap;connectable=0;fillColor=none;top=0;left=0;bottom=0;right=0;overflow=hidden;" vertex="1" parent="1">
          <mxGeometry x="80" y="320" width="240" height="40" as="geometry">
            <mxRectangle width="240" height="40" as="alternateBounds" />
          </mxGeometry>
        </mxCell>
        <mxCell id="Hsmfd1g_AHss6eR4w8qp-46" value="Albert Dupont @ 2014-09-01T09:30" style="shape=partialRectangle;html=1;whiteSpace=wrap;connectable=0;fillColor=none;top=0;left=0;bottom=0;right=0;overflow=hidden;" vertex="1" parent="1">
          <mxGeometry x="80" y="360" width="240" height="40" as="geometry">
            <mxRectangle width="240" height="40" as="alternateBounds" />
          </mxGeometry>
        </mxCell>
        <mxCell id="Hsmfd1g_AHss6eR4w8qp-47" value="&#xa;Tension&#xa;&#xa;" style="shape=table;startSize=30;container=1;collapsible=0;childLayout=tableLayout;fontStyle=1;align=center;fixedRows=1;metaEdit=1;swimlaneHead=0;top=1;noLabel=1;" vertex="1" parent="1">
          <mxGeometry x="490" y="210" width="330" height="190" as="geometry" />
        </mxCell>
        <mxCell id="Hsmfd1g_AHss6eR4w8qp-48" style="shape=tableRow;horizontal=0;startSize=0;swimlaneHead=0;swimlaneBody=0;top=0;left=0;bottom=0;right=0;collapsible=0;dropTarget=0;fillColor=none;points=[[0,0.5],[1,0.5]];portConstraint=eastwest;" vertex="1" parent="Hsmfd1g_AHss6eR4w8qp-47">
          <mxGeometry y="30" width="330" height="40" as="geometry" />
        </mxCell>
        <mxCell id="Hsmfd1g_AHss6eR4w8qp-49" value="Name" style="shape=partialRectangle;html=1;whiteSpace=wrap;connectable=0;fillColor=none;top=0;left=0;bottom=0;right=0;overflow=hidden;" vertex="1" parent="Hsmfd1g_AHss6eR4w8qp-48">
          <mxGeometry width="250" height="40" as="geometry">
            <mxRectangle width="250" height="40" as="alternateBounds" />
          </mxGeometry>
        </mxCell>
        <mxCell id="Hsmfd1g_AHss6eR4w8qp-50" value="AID" style="shape=partialRectangle;html=1;whiteSpace=wrap;connectable=0;fillColor=none;top=0;left=0;bottom=0;right=0;overflow=hidden;" vertex="1" parent="Hsmfd1g_AHss6eR4w8qp-48">
          <mxGeometry x="250" width="80" height="40" as="geometry">
            <mxRectangle width="80" height="40" as="alternateBounds" />
          </mxGeometry>
        </mxCell>
        <mxCell id="Hsmfd1g_AHss6eR4w8qp-51" value="" style="shape=tableRow;horizontal=0;startSize=0;swimlaneHead=0;swimlaneBody=0;top=0;left=0;bottom=0;right=0;collapsible=0;dropTarget=0;fillColor=none;points=[[0,0.5],[1,0.5]];portConstraint=eastwest;" vertex="1" parent="Hsmfd1g_AHss6eR4w8qp-47">
          <mxGeometry y="70" width="330" height="40" as="geometry" />
        </mxCell>
        <mxCell id="Hsmfd1g_AHss6eR4w8qp-52" value="" style="shape=partialRectangle;html=1;whiteSpace=wrap;connectable=0;fillColor=none;top=0;left=0;bottom=0;right=0;overflow=hidden;" vertex="1" parent="Hsmfd1g_AHss6eR4w8qp-51">
          <mxGeometry width="250" height="40" as="geometry">
            <mxRectangle width="250" height="40" as="alternateBounds" />
          </mxGeometry>
        </mxCell>
        <mxCell id="Hsmfd1g_AHss6eR4w8qp-53" value="1" style="shape=partialRectangle;html=1;whiteSpace=wrap;connectable=0;fillColor=none;top=0;left=0;bottom=0;right=0;overflow=hidden;" vertex="1" parent="Hsmfd1g_AHss6eR4w8qp-51">
          <mxGeometry x="250" width="80" height="40" as="geometry">
            <mxRectangle width="80" height="40" as="alternateBounds" />
          </mxGeometry>
        </mxCell>
        <mxCell id="Hsmfd1g_AHss6eR4w8qp-54" value="" style="shape=tableRow;horizontal=0;startSize=0;swimlaneHead=0;swimlaneBody=0;top=0;left=0;bottom=0;right=0;collapsible=0;dropTarget=0;fillColor=none;points=[[0,0.5],[1,0.5]];portConstraint=eastwest;" vertex="1" parent="Hsmfd1g_AHss6eR4w8qp-47">
          <mxGeometry y="110" width="330" height="40" as="geometry" />
        </mxCell>
        <mxCell id="Hsmfd1g_AHss6eR4w8qp-55" value="Poids" style="shape=partialRectangle;html=1;whiteSpace=wrap;connectable=0;fillColor=none;top=0;left=0;bottom=0;right=0;overflow=hidden;" vertex="1" parent="Hsmfd1g_AHss6eR4w8qp-54">
          <mxGeometry width="250" height="40" as="geometry">
            <mxRectangle width="250" height="40" as="alternateBounds" />
          </mxGeometry>
        </mxCell>
        <mxCell id="Hsmfd1g_AHss6eR4w8qp-56" value="2" style="shape=partialRectangle;html=1;whiteSpace=wrap;connectable=0;fillColor=none;top=0;left=0;bottom=0;right=0;overflow=hidden;" vertex="1" parent="Hsmfd1g_AHss6eR4w8qp-54">
          <mxGeometry x="250" width="80" height="40" as="geometry">
            <mxRectangle width="80" height="40" as="alternateBounds" />
          </mxGeometry>
        </mxCell>
        <mxCell id="Hsmfd1g_AHss6eR4w8qp-57" value="" style="shape=tableRow;horizontal=0;startSize=0;swimlaneHead=0;swimlaneBody=0;top=0;left=0;bottom=0;right=0;collapsible=0;dropTarget=0;fillColor=none;points=[[0,0.5],[1,0.5]];portConstraint=eastwest;" vertex="1" parent="Hsmfd1g_AHss6eR4w8qp-47">
          <mxGeometry y="150" width="330" height="40" as="geometry" />
        </mxCell>
        <mxCell id="Hsmfd1g_AHss6eR4w8qp-58" value="Tension" style="shape=partialRectangle;html=1;whiteSpace=wrap;connectable=0;fillColor=none;top=0;left=0;bottom=0;right=0;overflow=hidden;" vertex="1" parent="Hsmfd1g_AHss6eR4w8qp-57">
          <mxGeometry width="250" height="40" as="geometry">
            <mxRectangle width="250" height="40" as="alternateBounds" />
          </mxGeometry>
        </mxCell>
        <mxCell id="Hsmfd1g_AHss6eR4w8qp-59" value="3" style="shape=partialRectangle;html=1;whiteSpace=wrap;connectable=0;fillColor=none;top=0;left=0;bottom=0;right=0;overflow=hidden;" vertex="1" parent="Hsmfd1g_AHss6eR4w8qp-57">
          <mxGeometry x="250" width="80" height="40" as="geometry">
            <mxRectangle width="80" height="40" as="alternateBounds" />
          </mxGeometry>
        </mxCell>
        <mxCell id="Hsmfd1g_AHss6eR4w8qp-60" value="Toux" style="shape=partialRectangle;html=1;whiteSpace=wrap;connectable=0;fillColor=none;top=0;left=0;bottom=0;right=0;overflow=hidden;" vertex="1" parent="1">
          <mxGeometry x="563" y="280" width="107" height="40" as="geometry">
            <mxRectangle width="107" height="40" as="alternateBounds" />
          </mxGeometry>
        </mxCell>
        <mxCell id="Hsmfd1g_AHss6eR4w8qp-61" value="" style="endArrow=classic;html=1;rounded=0;startSize=0;" edge="1" parent="1">
          <mxGeometry width="50" height="50" relative="1" as="geometry">
            <mxPoint x="450" y="200" as="sourcePoint" />
            <mxPoint x="470" y="230" as="targetPoint" />
          </mxGeometry>
        </mxCell>
        <mxCell id="Hsmfd1g_AHss6eR4w8qp-62" value="" style="endArrow=classic;html=1;rounded=0;startSize=0;" edge="1" parent="1">
          <mxGeometry width="50" height="50" relative="1" as="geometry">
            <mxPoint x="440" y="200" as="sourcePoint" />
            <mxPoint x="420" y="230" as="targetPoint" />
          </mxGeometry>
        </mxCell>
        <mxCell id="Hsmfd1g_AHss6eR4w8qp-63" value="Table" style="shape=table;startSize=30;container=1;collapsible=0;childLayout=tableLayout;fontStyle=1;align=center;fixedRows=1;metaEdit=1;swimlaneHead=0;top=1;noLabel=1;" vertex="1" parent="1">
          <mxGeometry x="250" y="460" width="380" height="190" as="geometry" />
        </mxCell>
        <mxCell id="Hsmfd1g_AHss6eR4w8qp-64" style="shape=tableRow;horizontal=0;startSize=0;swimlaneHead=0;swimlaneBody=0;top=0;left=0;bottom=0;right=0;collapsible=0;dropTarget=0;fillColor=none;points=[[0,0.5],[1,0.5]];portConstraint=eastwest;" vertex="1" parent="Hsmfd1g_AHss6eR4w8qp-63">
          <mxGeometry y="30" width="380" height="40" as="geometry" />
        </mxCell>
        <mxCell id="Hsmfd1g_AHss6eR4w8qp-65" value="AID" style="shape=partialRectangle;html=1;whiteSpace=wrap;connectable=0;fillColor=none;top=0;left=0;bottom=0;right=0;overflow=hidden;" vertex="1" parent="Hsmfd1g_AHss6eR4w8qp-64">
          <mxGeometry width="80" height="40" as="geometry">
            <mxRectangle width="80" height="40" as="alternateBounds" />
          </mxGeometry>
        </mxCell>
        <mxCell id="Hsmfd1g_AHss6eR4w8qp-66" value="EID" style="shape=partialRectangle;html=1;whiteSpace=wrap;connectable=0;fillColor=none;top=0;left=0;bottom=0;right=0;overflow=hidden;" vertex="1" parent="Hsmfd1g_AHss6eR4w8qp-64">
          <mxGeometry x="80" width="90" height="40" as="geometry">
            <mxRectangle width="90" height="40" as="alternateBounds" />
          </mxGeometry>
        </mxCell>
        <mxCell id="Hsmfd1g_AHss6eR4w8qp-79" value="Value" style="shape=partialRectangle;html=1;whiteSpace=wrap;connectable=0;fillColor=none;top=0;left=0;bottom=0;right=0;overflow=hidden;" vertex="1" parent="Hsmfd1g_AHss6eR4w8qp-64">
          <mxGeometry x="170" width="210" height="40" as="geometry">
            <mxRectangle width="210" height="40" as="alternateBounds" />
          </mxGeometry>
        </mxCell>
        <mxCell id="Hsmfd1g_AHss6eR4w8qp-67" value="" style="shape=tableRow;horizontal=0;startSize=0;swimlaneHead=0;swimlaneBody=0;top=0;left=0;bottom=0;right=0;collapsible=0;dropTarget=0;fillColor=none;points=[[0,0.5],[1,0.5]];portConstraint=eastwest;" vertex="1" parent="Hsmfd1g_AHss6eR4w8qp-63">
          <mxGeometry y="70" width="380" height="40" as="geometry" />
        </mxCell>
        <mxCell id="Hsmfd1g_AHss6eR4w8qp-68" value="1" style="shape=partialRectangle;html=1;whiteSpace=wrap;connectable=0;fillColor=none;top=0;left=0;bottom=0;right=0;overflow=hidden;" vertex="1" parent="Hsmfd1g_AHss6eR4w8qp-67">
          <mxGeometry width="80" height="40" as="geometry">
            <mxRectangle width="80" height="40" as="alternateBounds" />
          </mxGeometry>
        </mxCell>
        <mxCell id="Hsmfd1g_AHss6eR4w8qp-69" value="1" style="shape=partialRectangle;html=1;whiteSpace=wrap;connectable=0;fillColor=none;top=0;left=0;bottom=0;right=0;overflow=hidden;" vertex="1" parent="Hsmfd1g_AHss6eR4w8qp-67">
          <mxGeometry x="80" width="90" height="40" as="geometry">
            <mxRectangle width="90" height="40" as="alternateBounds" />
          </mxGeometry>
        </mxCell>
        <mxCell id="Hsmfd1g_AHss6eR4w8qp-80" style="shape=partialRectangle;html=1;whiteSpace=wrap;connectable=0;fillColor=none;top=0;left=0;bottom=0;right=0;overflow=hidden;" vertex="1" parent="Hsmfd1g_AHss6eR4w8qp-67">
          <mxGeometry x="170" width="210" height="40" as="geometry">
            <mxRectangle width="210" height="40" as="alternateBounds" />
          </mxGeometry>
        </mxCell>
        <mxCell id="Hsmfd1g_AHss6eR4w8qp-70" value="" style="shape=tableRow;horizontal=0;startSize=0;swimlaneHead=0;swimlaneBody=0;top=0;left=0;bottom=0;right=0;collapsible=0;dropTarget=0;fillColor=none;points=[[0,0.5],[1,0.5]];portConstraint=eastwest;" vertex="1" parent="Hsmfd1g_AHss6eR4w8qp-63">
          <mxGeometry y="110" width="380" height="40" as="geometry" />
        </mxCell>
        <mxCell id="Hsmfd1g_AHss6eR4w8qp-71" value="2" style="shape=partialRectangle;html=1;whiteSpace=wrap;connectable=0;fillColor=none;top=0;left=0;bottom=0;right=0;overflow=hidden;" vertex="1" parent="Hsmfd1g_AHss6eR4w8qp-70">
          <mxGeometry width="80" height="40" as="geometry">
            <mxRectangle width="80" height="40" as="alternateBounds" />
          </mxGeometry>
        </mxCell>
        <mxCell id="Hsmfd1g_AHss6eR4w8qp-72" value="2" style="shape=partialRectangle;html=1;whiteSpace=wrap;connectable=0;fillColor=none;top=0;left=0;bottom=0;right=0;overflow=hidden;" vertex="1" parent="Hsmfd1g_AHss6eR4w8qp-70">
          <mxGeometry x="80" width="90" height="40" as="geometry">
            <mxRectangle width="90" height="40" as="alternateBounds" />
          </mxGeometry>
        </mxCell>
        <mxCell id="Hsmfd1g_AHss6eR4w8qp-81" style="shape=partialRectangle;html=1;whiteSpace=wrap;connectable=0;fillColor=none;top=0;left=0;bottom=0;right=0;overflow=hidden;" vertex="1" parent="Hsmfd1g_AHss6eR4w8qp-70">
          <mxGeometry x="170" width="210" height="40" as="geometry">
            <mxRectangle width="210" height="40" as="alternateBounds" />
          </mxGeometry>
        </mxCell>
        <mxCell id="Hsmfd1g_AHss6eR4w8qp-73" value="" style="shape=tableRow;horizontal=0;startSize=0;swimlaneHead=0;swimlaneBody=0;top=0;left=0;bottom=0;right=0;collapsible=0;dropTarget=0;fillColor=none;points=[[0,0.5],[1,0.5]];portConstraint=eastwest;" vertex="1" parent="Hsmfd1g_AHss6eR4w8qp-63">
          <mxGeometry y="150" width="380" height="40" as="geometry" />
        </mxCell>
        <mxCell id="Hsmfd1g_AHss6eR4w8qp-74" value="3" style="shape=partialRectangle;html=1;whiteSpace=wrap;connectable=0;fillColor=none;top=0;left=0;bottom=0;right=0;overflow=hidden;" vertex="1" parent="Hsmfd1g_AHss6eR4w8qp-73">
          <mxGeometry width="80" height="40" as="geometry">
            <mxRectangle width="80" height="40" as="alternateBounds" />
          </mxGeometry>
        </mxCell>
        <mxCell id="Hsmfd1g_AHss6eR4w8qp-75" value="3" style="shape=partialRectangle;html=1;whiteSpace=wrap;connectable=0;fillColor=none;top=0;left=0;bottom=0;right=0;overflow=hidden;" vertex="1" parent="Hsmfd1g_AHss6eR4w8qp-73">
          <mxGeometry x="80" width="90" height="40" as="geometry">
            <mxRectangle width="90" height="40" as="alternateBounds" />
          </mxGeometry>
        </mxCell>
        <mxCell id="Hsmfd1g_AHss6eR4w8qp-82" style="shape=partialRectangle;html=1;whiteSpace=wrap;connectable=0;fillColor=none;top=0;left=0;bottom=0;right=0;overflow=hidden;" vertex="1" parent="Hsmfd1g_AHss6eR4w8qp-73">
          <mxGeometry x="170" width="210" height="40" as="geometry">
            <mxRectangle width="210" height="40" as="alternateBounds" />
          </mxGeometry>
        </mxCell>
        <mxCell id="Hsmfd1g_AHss6eR4w8qp-77" value="" style="endArrow=classic;html=1;rounded=0;startSize=0;entryX=0.5;entryY=0;entryDx=0;entryDy=0;" edge="1" parent="1" target="Hsmfd1g_AHss6eR4w8qp-63">
          <mxGeometry width="50" height="50" relative="1" as="geometry">
            <mxPoint x="350" y="420" as="sourcePoint" />
            <mxPoint x="540" y="420" as="targetPoint" />
          </mxGeometry>
        </mxCell>
        <mxCell id="Hsmfd1g_AHss6eR4w8qp-78" value="" style="endArrow=classic;html=1;rounded=0;startSize=0;entryX=0.588;entryY=0;entryDx=0;entryDy=0;entryPerimeter=0;" edge="1" parent="1" target="Hsmfd1g_AHss6eR4w8qp-63">
          <mxGeometry width="50" height="50" relative="1" as="geometry">
            <mxPoint x="600" y="410" as="sourcePoint" />
            <mxPoint x="540" y="420" as="targetPoint" />
          </mxGeometry>
        </mxCell>
        <mxCell id="Hsmfd1g_AHss6eR4w8qp-83" value="Oui" style="shape=partialRectangle;html=1;whiteSpace=wrap;connectable=0;fillColor=none;top=0;left=0;bottom=0;right=0;overflow=hidden;" vertex="1" parent="1">
          <mxGeometry x="473" y="535" width="90" height="30" as="geometry">
            <mxRectangle width="173" height="40" as="alternateBounds" />
          </mxGeometry>
        </mxCell>
        <mxCell id="Hsmfd1g_AHss6eR4w8qp-84" value="75" style="shape=partialRectangle;html=1;whiteSpace=wrap;connectable=0;fillColor=none;top=0;left=0;bottom=0;right=0;overflow=hidden;" vertex="1" parent="1">
          <mxGeometry x="473" y="576" width="90" height="30" as="geometry">
            <mxRectangle width="173" height="40" as="alternateBounds" />
          </mxGeometry>
        </mxCell>
        <mxCell id="Hsmfd1g_AHss6eR4w8qp-85" value="11/8" style="shape=partialRectangle;html=1;whiteSpace=wrap;connectable=0;fillColor=none;top=0;left=0;bottom=0;right=0;overflow=hidden;" vertex="1" parent="1">
          <mxGeometry x="473" y="616" width="90" height="30" as="geometry">
            <mxRectangle width="173" height="40" as="alternateBounds" />
          </mxGeometry>
        </mxCell>
      </root>
    </mxGraphModel>
  </diagram>
</mxfile>
